<?xml version="1.0" encoding="utf-8"?>
<!DOCTYPE svg PUBLIC "-//W3C//DTD SVG 20010904//EN" "http://www.w3.org/TR/2001/REC-SVG-20010904/DTD/svg10.dtd">
<svg version="1.0" xmlns="http://www.w3.org/2000/svg" width="935px" height="551px" viewBox="0 0 935 551" preserveAspectRatio="xMidYMid meet">
 <g fill="#ffffff">
  <path d="M0 275.5 l0 -275.5 467.5 0 467.5 0 0 275.5 0 275.5 -467.5 0 -467.5 0 0 -275.5z m928 0 l0 -268.5 -460.5 0 -460.5 0 0 268.5 0 268.5 460.5 0 460.5 0 0 -268.5z"/>
  <path d="M35 255.5 l0 -221.5 433 0 433 0 0 221.5 0 221.5 -433 0 -433 0 0 -221.5z m709 -161.5 l0 -7 -10.5 0 -10.5 0 0 7 0 7 10.5 0 10.5 0 0 -7z"/>
 </g>
 <g fill="#c3c3c3">
  <path d="M4 275.5 l0 -271.5 463.5 0 463.5 0 0 271.5 0 271.5 -463.5 0 -463.5 0 0 -271.5z m894 0.5 l0 -239 -430 0 -430 0 0 239 0 239 430 0 430 0 0 -239z"/>
  <path d="M72 492.5 c0 -3.3 0.2 -3.5 3.5 -3.5 3.3 0 3.5 0.2 3.5 3.5 0 3.3 -0.2 3.5 -3.5 3.5 -3.3 0 -3.5 -0.2 -3.5 -3.5z"/>
  <path d="M147 490.5 c0 -3.3 0.2 -3.5 3.5 -3.5 3.3 0 3.5 0.2 3.5 3.5 0 3.3 -0.2 3.5 -3.5 3.5 -3.3 0 -3.5 -0.2 -3.5 -3.5z"/>
 </g>
 <g fill="#99d9ea">
  <path d="M35 494.5 c0 -20.2 0.2 -23.5 1.5 -23.5 0.8 0 1.5 0.7 1.5 1.5 0 1.3 48.4 1.5 430 1.5 381.6 0 430 -0.2 430 -1.5 0 -0.8 0.7 -1.5 1.5 -1.5 1.3 0 1.5 3.3 1.5 23.5 l0 23.5 -433 0 -433 0 0 -23.5z"/>
  <path d="M167.5 470.9 c-0.4 -0.6 0.2 -2.1 1.4 -3.3 2.8 -3 2.9 -6.6 0.1 -5.9 -1.1 0.3 -2 0 -2 -0.6 0 -1.2 3.8 -1.5 6.4 -0.5 2.3 0.9 2 4.4 -0.6 7.1 l-2.1 2.3 2.1 0 c1.2 0 2.2 0.5 2.2 1 0 1.3 -6.7 1.3 -7.5 -0.1z"/>
  <path d="M178.1 470.6 c-0.7 -0.8 -1.1 -3.4 -0.9 -5.8 0.3 -3.9 0.6 -4.3 3.1 -4.6 1.5 -0.2 2.7 0.1 2.7 0.7 0 0.6 -0.7 0.8 -1.6 0.4 -1.3 -0.5 -1.5 0.2 -1.2 3.8 0.3 4.7 2.1 5.6 2.6 1.4 0.2 -1.4 0.7 -2.5 1.2 -2.5 1.4 0 2.1 5.1 0.9 6.6 -1.5 1.8 -5.3 1.8 -6.8 0z"/>
  <path d="M288.4 470.5 c-0.4 -0.8 -1.7 -1.5 -3 -1.5 -3.2 0 -3 -1.9 0.4 -5.8 4 -4.4 6.2 -4.2 6.2 0.5 0 4 1.6 3.5 2.2 -0.7 0.2 -1.9 1 -2.6 3.1 -2.8 1.5 -0.2 2.7 0.1 2.7 0.7 0 0.6 -0.7 0.8 -1.6 0.4 -1.3 -0.5 -1.5 0.2 -1.2 3.8 0.3 4.7 2.1 5.6 2.6 1.4 0.4 -3.2 1.8 -3.2 2.6 0.1 1.3 5.1 -4.8 7.6 -7.9 3.2 l-1.5 -2.3 -0.6 2.3 c-0.7 2.5 -3.2 3 -4 0.7z"/>
  <path d="M405.7 470.2 c1.6 -1.2 2.1 -2.3 1.7 -3.9 -0.7 -2.4 0.5 -3 2.3 -1.2 0.7 0.7 1.4 0.2 2.1 -2 0.8 -2.4 1.7 -3.1 3.6 -3.1 1.5 0 2.6 0.4 2.6 1 0 0.5 -0.7 0.7 -1.6 0.3 -1.3 -0.5 -1.5 0.2 -1.2 3.8 0.3 4.7 2.1 5.6 2.6 1.4 0.2 -1.4 0.7 -2.5 1.2 -2.5 1.4 0 2.1 5.1 0.9 6.6 -1.7 2 -5.7 1.7 -7.1 -0.5 -1.2 -2 -1.2 -2 -2.6 0 -0.7 1.1 -2.5 1.9 -4 1.9 l-2.7 0 2.2 -1.8z"/>
  <path d="M514.4 470.5 c-0.4 -0.8 -0.3 -2.6 0 -4 0.5 -2 1.3 -2.5 3.6 -2.5 1.9 0 2.9 0.5 2.8 1.3 -0.2 0.6 0.4 1.2 1.2 1.2 0.9 0 1.7 -1.2 2 -3 0.4 -2.4 1.1 -3.1 3.3 -3.3 1.5 -0.2 2.7 0.1 2.7 0.7 0 0.6 -0.7 0.8 -1.6 0.4 -1.3 -0.5 -1.5 0.2 -1.2 3.8 0.3 4.9 2.1 6 2.6 1.7 0.2 -1.6 0.7 -2.8 1.2 -2.8 1.4 0 2.1 5.1 0.9 6.6 -1.6 2 -5.7 1.7 -7 -0.5 -1.2 -1.8 -1.2 -1.8 -3 0 -2.3 2.3 -6.7 2.5 -7.5 0.4z m4.8 -2 c0 -0.5 -0.5 -1.1 -1.1 -1.3 -0.6 -0.2 -1.1 0.4 -1.1 1.3 0 0.9 0.5 1.5 1.1 1.3 0.6 -0.2 1.1 -0.8 1.1 -1.3z"/>
  <path d="M633 469.6 c0 -0.9 0.7 -1.2 2 -0.9 1.1 0.3 2 0.9 2 1.4 0 0.5 -0.9 0.9 -2 0.9 -1.1 0 -2 -0.6 -2 -1.4z"/>
  <path d="M639.2 469.8 c-0.7 -0.7 -1.2 -3.1 -1.2 -5.4 0 -3.7 0.3 -4.3 2.6 -4.8 1.6 -0.4 3.5 -0.1 4.9 0.8 1.3 0.9 2.5 1.1 2.7 0.6 0.5 -1.3 5.8 -2.4 5.8 -1.1 0 0.6 -0.7 0.8 -1.6 0.4 -1.3 -0.5 -1.5 0.2 -1.2 3.8 0.3 4.7 2.1 5.6 2.6 1.4 0.2 -1.4 0.7 -2.5 1.2 -2.5 1.4 0 2.1 5.1 0.9 6.6 -1.7 2 -5.7 1.7 -7.1 -0.5 -1.2 -2 -1.2 -2 -2.6 0 -1.5 2.1 -5.2 2.5 -7 0.7z m4.6 -5.8 c-0.5 -4.9 -2.8 -5.1 -2.8 -0.2 0 2.1 0.3 4.2 0.7 4.6 1.3 1.2 2.4 -1.2 2.1 -4.4z"/>
  <path d="M737 469.6 c0 -0.9 0.7 -1.2 2 -0.9 1.1 0.3 2 0.9 2 1.4 0 0.5 -0.9 0.9 -2 0.9 -1.1 0 -2 -0.6 -2 -1.4z"/>
  <path d="M742.5 469.9 c-0.4 -0.6 0.2 -2.1 1.4 -3.3 1.2 -1.2 2.1 -3.2 2.1 -4.5 0 -1.6 0.5 -2.2 1.7 -1.9 2.7 0.5 2.8 3.7 0.2 6.4 l-2.2 2.4 2.1 0 c1.2 0 2.2 0.5 2.2 1 0 1.3 -6.7 1.3 -7.5 -0.1z"/>
  <path d="M753.2 469.8 c-1.3 -1.3 -1.7 -9.8 -0.4 -9.8 0.4 0 1.7 -0.3 3 -0.6 1.3 -0.4 2.2 -0.2 2.2 0.5 0 0.5 -0.7 0.8 -1.6 0.4 -1.3 -0.5 -1.5 0.2 -1.2 3.8 0.3 4.7 2.1 5.6 2.6 1.4 0.2 -1.4 0.7 -2.5 1.2 -2.5 1.4 0 2.1 5.1 0.9 6.6 -1.4 1.7 -5.1 1.8 -6.7 0.2z"/>
  <path d="M42.5 376.9 c-0.4 -0.6 0.2 -2.1 1.4 -3.3 2.9 -3.1 2.9 -6.6 0 -5.9 -1.6 0.4 -2 0.2 -1.7 -0.8 0.6 -2 4.5 -2.3 6.3 -0.5 2.1 2.1 1.9 4.6 -0.7 7.3 l-2.1 2.3 2.1 0 c1.2 0 2.2 0.5 2.2 1 0 1.3 -6.7 1.3 -7.5 -0.1z"/>
  <path d="M53.2 376.8 c-0.7 -0.7 -1.2 -3.1 -1.2 -5.5 0 -3.2 0.5 -4.5 1.9 -5.3 2.7 -1.4 4.1 -1.3 4.1 0.5 0 0.9 -0.6 1.2 -1.6 0.8 -1.3 -0.5 -1.5 0.2 -1.2 3.8 0.3 4.7 2.1 5.6 2.6 1.4 0.2 -1.4 0.7 -2.5 1.2 -2.5 1.4 0 2.1 5.1 0.9 6.6 -1.4 1.7 -5.1 1.8 -6.7 0.2z"/>
  <path d="M50.4 295.5 c-0.4 -0.8 -1.7 -1.5 -3 -1.5 -3.1 0 -3.1 -2 0.1 -5.4 1.4 -1.5 2.5 -3.1 2.5 -3.7 0 -0.5 0.9 -0.9 2 -0.9 1.7 0 2 0.7 2 4.1 0 2.4 0.4 3.8 1 3.4 0.6 -0.3 1 -1.7 1 -3 0 -1.4 0.8 -2.9 1.9 -3.5 2.7 -1.4 4.1 -1.3 4.1 0.5 0 0.9 -0.6 1.2 -1.6 0.8 -1.3 -0.5 -1.5 0.2 -1.2 3.8 0.3 4.7 2.1 5.6 2.6 1.4 0.4 -3.2 1.8 -3.2 2.6 0.1 1.3 5.1 -4.8 7.6 -7.9 3.2 l-1.5 -2.3 -0.6 2.3 c-0.7 2.5 -3.2 3 -4 0.7z"/>
  <path d="M47 221.1 c0 -0.5 0.7 -1.1 1.5 -1.5 1.1 -0.4 1.4 -1.3 0.9 -3.1 -0.7 -2.6 0.4 -3.3 2.3 -1.4 0.9 0.9 1.4 0.5 1.9 -1.5 0.9 -3.8 6.4 -6.5 6.4 -3.1 0 0.9 -0.6 1.2 -1.6 0.8 -1.3 -0.5 -1.5 0.2 -1.2 3.8 0.3 4.7 2.1 5.6 2.6 1.4 0.2 -1.4 0.7 -2.5 1.2 -2.5 1.4 0 2.1 5.1 0.9 6.6 -1.7 2 -5.6 1.7 -7.1 -0.5 -1.4 -2 -1.4 -2 -2.6 0 -1.2 1.9 -5.2 2.7 -5.2 1z"/>
  <path d="M42.4 151.5 c-0.4 -0.8 -0.3 -2.6 0 -4 0.5 -2 1.3 -2.5 3.6 -2.5 1.9 0 2.9 0.5 2.7 1.3 -0.1 0.6 0.5 1.2 1.3 1.2 0.8 0 1.6 -1.1 1.8 -2.5 0.5 -3.9 6.2 -7.2 6.2 -3.5 0 0.9 -0.6 1.2 -1.6 0.8 -1.3 -0.5 -1.5 0.2 -1.2 3.8 0.3 4.9 2.1 6 2.6 1.7 0.4 -3.5 1.8 -3.6 2.6 -0.2 1.3 5 -4.7 7.6 -7.7 3.4 -1.4 -2 -1.5 -2 -1.9 -0.3 -0.7 2.5 -7.6 3.1 -8.4 0.8z m4.8 -2 c0 -0.5 -0.5 -1.1 -1.1 -1.3 -0.6 -0.2 -1.1 0.4 -1.1 1.3 0 0.9 0.5 1.5 1.1 1.3 0.6 -0.2 1.1 -0.8 1.1 -1.3z"/>
  <path d="M46.8 142.6 c-2.5 -1.8 -2.2 -2.6 0.7 -2.6 1.8 0 2.5 0.5 2.5 2 0 2.3 -0.8 2.5 -3.2 0.6z"/>
  <path d="M844.3 104.1 c0.4 -1.9 -0.1 -4.4 -1.3 -7 -1.1 -2.2 -2 -4.4 -2 -5 0 -1.5 -3.9 0 -4.3 1.8 -0.3 0.9 -0.5 0.2 -0.6 -1.5 -0.1 -3 -0.1 -3 4.2 -2.5 3.1 0.5 4.5 1.2 5.2 2.9 1.2 2.7 2.1 2.8 2.8 0.2 0.5 -2 3.3 -3.7 4.3 -2.7 0.3 0.3 -0.7 4.2 -2.2 8.6 -2.2 6.4 -3.1 8.1 -4.7 8.1 -1.6 0 -1.9 -0.5 -1.4 -2.9z"/>
  <path d="M764 96 l0 -5.9 5.3 0.2 5.2 0.2 0 5.5 c0 4.3 -0.3 5.5 -1.7 5.8 -1.4 0.3 -1.7 -0.6 -2 -4.5 -0.4 -6.2 -2.2 -6.2 -2.6 0 -0.3 3.9 -0.6 4.7 -2.3 4.7 -1.7 0 -1.9 -0.7 -1.9 -6z"/>
  <path d="M781 100 c0 -1.3 0.5 -1.7 1.4 -1.4 2.3 0.9 2.6 3 0.5 3.1 -1.3 0.1 -1.9 -0.5 -1.9 -1.7z"/>
  <path d="M793 100.6 c0 -1.6 2.7 -2.9 4.1 -2 1.6 0.9 0.5 2.7 -1.9 3.1 -1.4 0.2 -2.2 -0.2 -2.2 -1.1z"/>
  <path d="M801 96 l0 -5.9 5.3 0.2 5.2 0.2 0 5.5 c0 4.3 -0.3 5.5 -1.7 5.8 -1.4 0.3 -1.7 -0.6 -2 -4.5 -0.4 -6.2 -2.2 -6.2 -2.6 0 -0.3 3.9 -0.6 4.7 -2.3 4.7 -1.7 0 -1.9 -0.7 -1.9 -6z"/>
  <path d="M818 100.9 c0 -0.8 1.7 -4.6 2.5 -5.7 0.1 -0.1 1 0 1.9 0.4 1.9 0.7 2.1 3.5 0.4 5.2 -1.5 1.5 -4.8 1.6 -4.8 0.1z"/>
  <path d="M826.4 100.6 c-0.3 -0.7 -0.4 -3.3 -0.2 -5.7 0.2 -3.2 0.8 -4.5 2.1 -4.7 1.5 -0.3 1.7 0.5 1.7 5.7 0 4.8 -0.3 6.1 -1.5 6.1 -0.9 0 -1.8 -0.6 -2.1 -1.4z"/>
  <path d="M836 100 c0 -1.3 0.5 -1.7 1.4 -1.4 2.3 0.9 2.6 3 0.5 3.1 -1.3 0.1 -1.9 -0.5 -1.9 -1.7z"/>
  <path d="M794 93.4 c0 -3.6 0.1 -3.6 2.3 -2.1 1.2 0.8 2.2 2.3 2.2 3.3 0 1.2 -0.8 2 -2.2 2.2 -2 0.3 -2.3 -0.1 -2.3 -3.4z"/>
  <path d="M68.3 83.5 c0 -2.7 0.2 -3.8 0.4 -2.2 0.2 1.5 0.2 3.7 0 5 -0.2 1.2 -0.4 0 -0.4 -2.8z"/>
  <path d="M48.2 85.8 c-0.7 -0.7 -1.2 -3.1 -1.2 -5.5 0 -3.7 0.4 -4.5 2.5 -5.5 2.2 -1 2.9 -0.9 4.7 0.9 2 2 2.1 2 3.9 0.2 2.3 -2.3 4.9 -2.5 4.9 -0.4 0 0.9 -0.6 1.2 -1.6 0.8 -1.3 -0.5 -1.5 0.2 -1.2 3.8 0.3 4.7 2.1 5.6 2.6 1.4 0.2 -1.4 0.7 -2.5 1.2 -2.5 1.4 0 2.1 5.1 0.9 6.6 -1.7 2 -5.7 1.7 -7.1 -0.5 -1.2 -2 -1.2 -2 -2.6 0 -1.5 2.1 -5.2 2.5 -7 0.7z m4.6 -5.8 c-0.5 -4.9 -2.8 -5.1 -2.8 -0.2 0 2.1 0.3 4.2 0.7 4.6 1.3 1.2 2.4 -1.2 2.1 -4.4z"/>
 </g>
 <g fill="#000000">
  <path d="M4 275.5 l0 -271.5 463.5 0 463.5 0 0 271.5 0 271.5 -463.5 0 -463.5 0 0 -271.5z m924 0 l0 -268.5 -460.5 0 -460.5 0 0 268.5 0 268.5 460.5 0 460.5 0 0 -268.5z"/>
  <path d="M35 276 l0 -242 433 0 433 0 0 242 0 242 -433 0 -433 0 0 -242z m863 220 c0 -12 0.4 -19 1 -19 0.6 0 1 -0.7 1 -1.5 0 -0.8 -0.4 -1.5 -1 -1.5 -0.7 0 -1 -73.5 -1 -218.5 l0 -218.5 -430 0 -430 0 0 19.1 c0 18.6 0 19 2 18.4 1.8 -0.6 2 -0.2 2 4.5 0 3.6 0.4 5.2 1.5 5.6 2.3 0.9 0.7 2.4 -2.6 2.4 l-2.9 0 -0.2 194.3 c-0.2 106.8 -0.2 203.1 0 214 l0.3 19.7 429.9 0 430 0 0 -19z m-858 -415 c0 -2.2 -0.4 -4 -1 -4 -0.5 0 -1 1.8 -1 4 0 2.2 0.5 4 1 4 0.6 0 1 -1.8 1 -4z"/>
  <path d="M53.1 500.2 c-1.9 -1.5 -2.2 -2.5 -1.9 -8.1 0.2 -4 0.8 -6.6 1.6 -6.9 0.8 -0.2 1.2 1.1 1.2 4.8 0 6 1.3 9 4 9 2.7 0 4 -3 4 -9 0 -7.4 2.4 -6.2 2.8 1.5 0.3 4.8 0 6.1 -1.9 8.1 -2.7 2.8 -6.8 3.1 -9.8 0.6z"/>
  <path d="M69 493 c0 -8.8 1.2 -11.9 2.3 -6.1 0.5 2.5 1 2.9 3.9 2.8 3.2 -0.2 3.3 -0.1 3.9 4.7 0.4 3.4 0.1 5.2 -0.9 6.2 -1.7 1.7 -4.4 1.8 -6 0.2 -0.9 -0.9 -1.2 -0.9 -1.2 0 0 0.7 -0.4 1.2 -1 1.2 -0.6 0 -1 -3.7 -1 -9z m6.8 2.1 c0.3 -2.7 0 -3.2 -1.5 -2.9 -1.9 0.3 -2.8 3 -1.9 5.4 1 2.6 3.1 1 3.4 -2.5z"/>
  <path d="M84.2 500.8 c-1.4 -1.4 -1.6 -11.8 -0.2 -11.8 0.6 0 1 1.7 1 3.8 0 7.6 4.6 8.6 5.2 1.1 0.2 -2.3 0.9 -4.4 1.6 -4.7 0.9 -0.3 1.2 1.4 1.2 6.2 0 3.7 -0.4 6.6 -1 6.6 -0.5 0 -1 -0.5 -1 -1.2 0 -0.9 -0.3 -0.9 -1.2 0 -0.7 0.7 -1.9 1.2 -2.8 1.2 -0.9 0 -2.1 -0.5 -2.8 -1.2z"/>
  <path d="M97 495.6 c0 -3.7 0.4 -6.6 1 -6.6 0.6 0 1 0.5 1 1 0 0.7 0.7 0.7 2 0 1.2 -0.6 3 -0.8 4 -0.5 1.7 0.5 2 1.6 2 6.7 0 7.2 -2.2 7.7 -3 0.7 -0.3 -3 -1 -4.4 -2 -4.4 -1 0 -1.7 1.4 -2 4.4 -0.8 7.3 -3 6.4 -3 -1.3z"/>
  <path d="M112.3 500.8 c-1.7 -2.2 -2.3 -11.4 -0.9 -13.3 1.2 -1.7 1.4 -1.7 3.4 0.3 2.3 2.3 2.9 4.2 1.2 4.2 -1.4 0 -1.2 6.8 0.2 7.2 1.5 0.5 0.1 2.8 -1.6 2.8 -0.8 0 -1.8 -0.6 -2.3 -1.2z"/>
  <path d="M121.2 500.8 c-1.4 -1.4 -1.6 -11.8 -0.2 -11.8 0.6 0 1 1.7 1 3.8 0 7.6 4.6 8.6 5.2 1.1 0.2 -2.3 0.9 -4.4 1.6 -4.7 0.9 -0.3 1.2 1.4 1.2 6.2 0 3.7 -0.4 6.6 -1 6.6 -0.5 0 -1 -0.5 -1 -1.2 0 -0.9 -0.3 -0.9 -1.2 0 -0.7 0.7 -1.9 1.2 -2.8 1.2 -0.9 0 -2.1 -0.5 -2.8 -1.2z"/>
  <path d="M141.6 499.9 c-3.7 -2.9 -3.6 -8.5 0.2 -12.2 5.4 -5.2 11.9 -2.5 12.4 5 0.4 7.8 -6.6 11.9 -12.6 7.2z m8.3 -2.3 c1.7 -2 1 -7.7 -1.1 -9 -2.8 -1.7 -5.2 0.5 -5.6 4.9 -0.3 3.9 0.8 5.5 3.9 5.5 0.9 0 2.2 -0.6 2.8 -1.4z"/>
  <path d="M158 501 c-1.9 -1.2 -0.6 -2.4 2.7 -2.5 3.9 0 3.8 -2 -0.2 -4.3 -4.2 -2.5 -4.6 -5.5 -1.1 -7.8 2.8 -1.7 6.7 -1.6 7.4 0.4 0.2 0.8 -0.7 1.2 -2.7 1.2 -4 0 -4.1 2.4 -0.1 4 2.4 1 3 1.8 3 4.4 0 1.8 -0.5 3.7 -1.2 4.4 -1.4 1.4 -5.7 1.6 -7.8 0.2z"/>
  <path d="M167.5 470.9 c-0.4 -0.6 0.2 -2.1 1.4 -3.3 2.8 -3 2.9 -7 0.1 -6.3 -1.1 0.3 -2 0.1 -2 -0.5 0 -0.5 1.7 -0.8 3.7 -0.6 4.8 0.4 5.3 2.5 1.8 6.7 l-2.7 3.1 2.6 0 c1.4 0 2.6 0.5 2.6 1 0 1.3 -6.7 1.3 -7.5 -0.1z"/>
  <path d="M178.1 470.6 c-0.7 -0.8 -1.1 -3.4 -0.9 -5.8 0.3 -4.2 0.4 -4.3 3.8 -4.3 3.4 0 3.5 0.1 3.8 4.3 0.3 4.7 -1 7.2 -3.8 7.2 -1 0 -2.3 -0.6 -2.9 -1.4z m4.4 -5.2 c0 -2.8 -0.4 -3.9 -1.5 -3.9 -1.6 0 -2.6 4.5 -1.6 7.2 1.1 2.8 3.1 0.7 3.1 -3.3z"/>
  <path d="M288.4 470.5 c-0.4 -0.8 -1.7 -1.5 -3 -1.5 -3.1 0 -3 -1.5 0.2 -5.7 3.4 -4.4 5.4 -4.3 5.4 0.3 0 4.3 2.2 4.2 3 -0.2 0.5 -2.6 0.9 -2.9 4 -2.9 3.4 0 3.5 0.1 3.8 4.3 0.2 2.4 -0.2 5 -0.9 5.8 -1.6 2 -4.7 1.7 -6.1 -0.5 -1.3 -2.1 -3.8 -1.7 -3.8 0.5 0 1.9 -1.9 1.8 -2.6 -0.1z m11.1 -5.1 c0 -2.8 -0.4 -3.9 -1.5 -3.9 -1.6 0 -2.6 4.5 -1.6 7.2 1.1 2.8 3.1 0.7 3.1 -3.3z"/>
  <path d="M403.2 470.8 c-1.3 -1.3 -1.6 -6.6 -0.6 -9.2 0.4 -1 1.7 -1.6 3.8 -1.5 2.3 0.1 2.5 0.3 0.9 0.6 -1.3 0.2 -2.3 1.1 -2.3 1.8 0 0.7 1 1.5 2.3 1.7 4.1 0.6 3 7.8 -1.2 7.8 -0.9 0 -2.2 -0.5 -2.9 -1.2z m4.3 -2.8 c0 -0.7 -0.6 -1.5 -1.2 -1.7 -0.8 -0.3 -1.3 0.4 -1.3 1.7 0 1.3 0.5 2 1.3 1.8 0.6 -0.3 1.2 -1.1 1.2 -1.8z"/>
  <path d="M412.4 469.5 c-1.3 -2 -1.5 -3.3 -0.7 -5.8 0.8 -2.8 1.3 -3.2 4.3 -3.2 3.4 0 3.5 0.1 3.8 4.3 0.5 7 -4 9.8 -7.4 4.7z m5.1 -4.1 c0 -2.8 -0.4 -3.9 -1.5 -3.9 -1.6 0 -2.6 4.5 -1.6 7.2 1.1 2.8 3.1 0.7 3.1 -3.3z"/>
  <path d="M514.5 470.8 c-0.2 -0.7 -0.3 -3.3 -0.2 -5.8 0.2 -4.3 0.3 -4.5 3.5 -4.8 3.6 -0.4 5.3 1.8 3.3 4.2 -0.8 1 -0.9 1.6 -0.1 2.1 1.6 1 1.2 4.2 -0.6 4.9 -2.6 1 -5.4 0.7 -5.9 -0.6z m5 -1.8 c0.3 -0.6 -0.1 -1.3 -1 -1.6 -1.9 -0.8 -3 0 -2 1.5 0.8 1.4 2.2 1.4 3 0.1z m-0.3 -6.5 c0 -0.5 -0.5 -1.1 -1.1 -1.3 -0.6 -0.2 -1.1 0.4 -1.1 1.3 0 0.9 0.5 1.5 1.1 1.3 0.6 -0.2 1.1 -0.8 1.1 -1.3z"/>
  <path d="M524.6 469.8 c-1 -1.6 -1.2 -3.4 -0.7 -5.8 0.6 -3.2 1 -3.5 4.1 -3.5 3.4 0 3.5 0.1 3.8 4.3 0.2 2.4 -0.2 5 -0.9 5.8 -1.7 2.1 -4.7 1.7 -6.3 -0.8z m4.9 -4.4 c0 -2.8 -0.4 -3.9 -1.5 -3.9 -1.6 0 -2.6 4.5 -1.6 7.2 1.1 2.8 3.1 0.7 3.1 -3.3z"/>
  <path d="M629 470 c0 -0.5 0.5 -1 1 -1 0.6 0 1 -2.2 1 -5 0 -2.7 0.5 -5 1 -5 0.6 0 1 2 1 4.5 0 3.1 0.5 4.7 1.5 5.1 2.7 1.1 1.6 2.4 -2 2.4 -1.9 0 -3.5 -0.4 -3.5 -1z"/>
  <path d="M639.2 469.8 c-0.7 -0.7 -1.2 -3.1 -1.2 -5.4 0 -3.6 0.3 -4.3 2.4 -4.8 4.2 -1 5.6 0.2 5.6 4.8 0 4.4 -1.3 6.6 -4 6.6 -0.9 0 -2.1 -0.5 -2.8 -1.2z m4.3 -5.4 c0 -2.8 -0.4 -3.9 -1.5 -3.9 -1.6 0 -2.6 4.5 -1.6 7.2 1.1 2.8 3.1 0.7 3.1 -3.3z"/>
  <path d="M648.6 468.8 c-2.8 -3.9 -1.9 -8 2 -9.2 3.8 -1.2 5.4 0.2 5.4 4.8 0 6.5 -4.2 9 -7.4 4.4z m4.9 -4.4 c0 -2.8 -0.4 -3.9 -1.5 -3.9 -1.6 0 -2.6 4.5 -1.6 7.2 1.1 2.8 3.1 0.7 3.1 -3.3z"/>
  <path d="M733 470 c0 -0.5 0.5 -1 1 -1 0.6 0 1 -2.2 1 -5 0 -2.7 0.5 -5 1 -5 0.6 0 1 2 1 4.5 0 3.1 0.5 4.7 1.5 5.1 2.7 1.1 1.6 2.4 -2 2.4 -1.9 0 -3.5 -0.4 -3.5 -1z"/>
  <path d="M742.5 469.9 c-0.4 -0.6 0.2 -2.1 1.4 -3.3 2.6 -2.7 2.7 -6.3 0.4 -6.9 -1.2 -0.3 -0.9 -0.5 0.8 -0.6 2.4 -0.1 4.9 1.4 4.9 3 0 0.4 -1.2 2.1 -2.6 3.8 l-2.6 3.1 2.6 0 c1.4 0 2.6 0.5 2.6 1 0 1.3 -6.7 1.3 -7.5 -0.1z"/>
  <path d="M753.2 469.8 c-0.7 -0.7 -1.2 -3.1 -1.2 -5.4 0 -3.6 0.3 -4.3 2.4 -4.8 4.2 -1 5.6 0.2 5.6 4.8 0 4.4 -1.3 6.6 -4 6.6 -0.9 0 -2.1 -0.5 -2.8 -1.2z m4.3 -5.4 c0 -2.8 -0.4 -3.9 -1.5 -3.9 -1.6 0 -2.6 4.5 -1.6 7.2 1.1 2.8 3.1 0.7 3.1 -3.3z"/>
  <path d="M641.3 457.2 c-3 -0.3 -3.3 -0.6 -3.2 -3.5 0.1 -1.8 0.3 -2.4 0.6 -1.4 0.2 0.9 1.1 1.7 1.9 1.7 0.8 0 1.4 -0.8 1.5 -1.7 0 -1.5 0.2 -1.5 0.8 0.2 l0.8 2 0.5 -2 c0.5 -1.6 0.6 -1.7 0.7 -0.2 0.1 1.6 3.1 1.7 49.1 1.7 42.9 0 49 -0.2 49 -1.5 0 -0.8 0.5 -1.5 1 -1.5 0.6 0 1 0.7 1 1.5 0 2.1 3.8 1.9 4.3 -0.2 0.4 -1.7 0.5 -1.7 0.6 0 0.1 1.6 3.6 1.7 58.6 1.7 l58.5 0 0 -44 c0 -38.4 0.2 -44 1.5 -44 1.3 0 1.5 5.7 1.5 45.5 l0 45.5 -112.7 0.2 c-62.1 0.2 -114.3 0.2 -116 0z"/>
  <path d="M68 301 c0 -138.4 0.2 -156 1.5 -156 1.3 0 1.5 12.6 1.5 110.3 0 60.6 0 130.1 0 154.5 l0 44.2 96.9 0 c91.5 0 97 -0.1 97.4 -1.7 0.4 -1.7 0.5 -1.7 0.6 0 0 0.9 0.5 1.7 1 1.7 0.5 0 1.2 -0.8 1.4 -1.7 0.4 -1.7 0.5 -1.7 0.6 0 0.1 1.5 1.3 1.7 10.6 1.7 8.7 0 10.5 0.3 10.5 1.5 0 1.3 -13 1.5 -111 1.5 l-111 0 0 -156z"/>
  <path d="M291 454 c0 -1.6 0.5 -3 1 -3 0.6 0 1 0.7 1 1.5 0 1.3 4.4 1.5 33.9 1.5 31.5 0 34 -0.1 34.4 -1.7 0.4 -1.7 0.5 -1.7 0.6 0 0 0.9 0.5 1.7 1 1.7 0.5 0 1.2 -0.8 1.4 -1.7 0.4 -1.7 0.5 -1.7 0.6 -0.1 0.1 1.6 2 1.8 21.9 2 11.9 0.2 34.9 0.2 51 0 24.9 -0.2 29.2 -0.5 29.2 -1.7 0 -0.8 0.7 -1.5 1.6 -1.5 1 0 1.4 0.6 1 1.5 -0.5 1.3 9.1 1.5 82.9 1.5 78.5 0 83.4 -0.1 83.8 -1.7 0.3 -1 0.5 -0.3 0.6 1.5 l0.1 3.2 -173 0 -173 0 0 -3z"/>
  <path d="M42.5 376.9 c-0.4 -0.6 0.2 -2.1 1.4 -3.3 2.8 -3 2.9 -7 0 -6.3 -1.3 0.3 -1.9 0.1 -1.6 -0.6 0.5 -1.7 4.5 -2.1 6.3 -0.7 2 1.8 1.8 3.4 -1.2 6.9 l-2.6 3.1 2.6 0 c1.4 0 2.6 0.5 2.6 1 0 1.3 -6.7 1.3 -7.5 -0.1z"/>
  <path d="M53.2 376.8 c-0.7 -0.7 -1.2 -3.1 -1.2 -5.5 0 -3.6 0.4 -4.5 2.5 -5.5 3.5 -1.6 5.5 0.4 5.5 5.6 0 4.4 -1.3 6.6 -4 6.6 -0.9 0 -2.1 -0.5 -2.8 -1.2z m4.3 -5.4 c0 -2.8 -0.4 -3.9 -1.5 -3.9 -1.6 0 -2.6 4.5 -1.6 7.2 1.1 2.8 3.1 0.7 3.1 -3.3z"/>
  <path d="M867 328 c0 -32.2 0.2 -37 1.5 -37 1.3 0 1.5 4.8 1.5 37 0 32.2 -0.2 37 -1.5 37 -1.3 0 -1.5 -4.8 -1.5 -37z"/>
  <path d="M50.4 295.5 c-0.4 -0.8 -1.7 -1.5 -3 -1.5 -3 0 -3 -1.1 0.1 -6 3.4 -5.3 5.5 -5.3 5.5 0.1 0 4.7 2.3 5.1 2.8 0.5 0.4 -3.4 4.4 -5.5 6.7 -3.6 1.8 1.5 2 9.1 0.3 10.8 -1.8 1.8 -4.6 1.5 -6 -0.7 -1.3 -2.1 -3.8 -1.7 -3.8 0.5 0 1.9 -1.9 1.8 -2.6 -0.1z m11.1 -5.1 c0 -2.8 -0.4 -3.9 -1.5 -3.9 -1.6 0 -2.6 4.5 -1.6 7.2 1.1 2.8 3.1 0.7 3.1 -3.3z"/>
  <path d="M867 253.5 c0 -31.8 0.2 -36.5 1.5 -36.5 1.3 0 1.5 4.7 1.5 36.5 0 31.8 -0.2 36.5 -1.5 36.5 -1.3 0 -1.5 -4.7 -1.5 -36.5z"/>
  <path d="M45.2 220.8 c-1.5 -1.5 -1.6 -7.2 -0.2 -9.9 1.1 -2 6 -2.7 6 -0.9 0 0.6 -0.9 1 -2 1 -2.8 0 -2.5 2.8 0.3 3.2 4.1 0.6 3 7.8 -1.2 7.8 -0.9 0 -2.2 -0.5 -2.9 -1.2z m4.3 -2.8 c0 -0.7 -0.6 -1.5 -1.2 -1.7 -0.8 -0.3 -1.3 0.4 -1.3 1.7 0 1.3 0.5 2 1.3 1.8 0.6 -0.3 1.2 -1.1 1.2 -1.8z"/>
  <path d="M54.4 219.5 c-2.1 -3.3 -1 -8.3 2.2 -9.7 3.4 -1.6 5.4 0.5 5.4 5.6 0 6.6 -4.4 9 -7.6 4.1z m5.1 -4.1 c0 -2.8 -0.4 -3.9 -1.5 -3.9 -1.6 0 -2.6 4.5 -1.6 7.2 1.1 2.8 3.1 0.7 3.1 -3.3z"/>
  <path d="M867 147.5 c0 -60.2 0.2 -68.5 1.5 -68.5 1.3 0 1.5 8.3 1.5 68.5 0 60.2 -0.2 68.5 -1.5 68.5 -1.3 0 -1.5 -8.3 -1.5 -68.5z"/>
  <path d="M42.6 152.2 c-1 -1.6 -0.2 -10.3 1 -11.3 1.9 -1.6 6.4 -0.2 6.4 1.9 0 1 -0.5 2.3 -1.1 2.9 -0.8 0.8 -0.8 1.3 0 1.7 1.6 1.1 1.3 4.3 -0.5 5 -2.2 0.8 -5.2 0.8 -5.8 -0.2z m4.9 -2.2 c0.3 -0.6 -0.1 -1.3 -1 -1.6 -1.9 -0.8 -3 0 -2 1.5 0.8 1.4 2.2 1.4 3 0.1z m-0.3 -6.5 c0 -0.5 -0.5 -1.1 -1.1 -1.3 -0.6 -0.2 -1.1 0.4 -1.1 1.3 0 0.9 0.5 1.5 1.1 1.3 0.6 -0.2 1.1 -0.8 1.1 -1.3z"/>
  <path d="M52.6 150.8 c-3.2 -5.2 1.7 -13.3 5.9 -9.8 1.8 1.5 2 9.1 0.3 10.8 -1.9 1.9 -4.6 1.4 -6.2 -1z m4.9 -4.4 c0 -2.8 -0.4 -3.9 -1.5 -3.9 -1.6 0 -2.6 4.5 -1.6 7.2 1.1 2.8 3.1 0.7 3.1 -3.3z"/>
  <path d="M68 98.5 l0 -45.5 170.5 0 c150.9 0 170.5 0.2 170.5 1.5 0 1.3 -7.2 1.5 -58.9 1.5 -46.2 0 -59 -0.3 -59.4 -1.2 -0.4 -1 -0.6 -1 -0.6 0 -0.1 1 -11.7 1.2 -56.3 1.2 -31 0 -80.3 0 -109.5 0 l-53.3 0 0 10.9 c0 7.8 -0.4 11.1 -1.2 11.4 -1 0.4 -1 0.6 0 0.6 0.9 0.1 1.2 7.3 1.2 32.6 0 28.2 -0.2 32.5 -1.5 32.5 -1.3 0 -1.5 -5.7 -1.5 -45.5z"/>
  <path d="M844.2 103.8 c0 -1.8 -0.9 -5.7 -2.1 -8.5 -2 -5.1 -2 -5.3 -0.2 -5.3 1.4 0 2.3 1.2 3.2 3.8 l1.2 3.7 1.3 -3.2 c1.4 -3.2 3.1 -4.9 4.1 -4 1 1.1 -4.8 16.7 -6.3 16.7 -0.9 0 -1.3 -1.1 -1.2 -3.2z"/>
  <path d="M720 94 l0 -10 13.5 0 13.5 0 0 10 0 10 -13.5 0 -13.5 0 0 -10z m23 0 l0 -6 -9.5 0 -9.5 0 0 6 0 6 9.5 0 9.5 0 0 -6z"/>
  <path d="M757.4 100.7 c-1 -2.7 0 -14 1.4 -14.5 0.9 -0.3 1.2 1.6 1.2 7.2 0 6.9 -1.3 10.6 -2.6 7.3z"/>
  <path d="M764 96.1 l0 -6 3.3 0.1 c6.2 0 6.7 0.4 6.7 6.4 0 4 -0.4 5.4 -1.4 5.4 -1.1 0 -1.6 -1.4 -1.8 -4.7 -0.2 -3.5 -0.7 -4.8 -1.8 -4.8 -1.1 0 -1.6 1.3 -1.8 4.8 -0.2 3.3 -0.7 4.7 -1.8 4.7 -1.1 0 -1.4 -1.4 -1.4 -5.9z"/>
  <path d="M779.2 100.8 c-1.7 -2.2 -1.9 -13.8 -0.2 -13.8 1.7 0 5.5 4.3 4.2 4.8 -1.6 0.5 -1.6 6.9 0 7.4 1.5 0.5 0.1 2.8 -1.6 2.8 -0.8 0 -1.8 -0.6 -2.4 -1.2z"/>
  <path d="M787.7 100.2 c-2.1 -2.3 -2.2 -6.6 -0.1 -8.6 3.3 -3.4 10.4 -1 10.4 3.5 0 1.6 -0.7 1.9 -4.1 1.9 -2.7 0 -3.8 0.4 -3.3 1.1 0.3 0.6 1.9 0.9 3.5 0.5 2.1 -0.4 2.9 -0.2 2.9 0.8 0 3 -6.8 3.5 -9.3 0.8z m6.1 -6.4 c-0.7 -1.9 -3.8 -2.2 -3.8 -0.4 0 1 0.9 1.6 2.1 1.6 1.2 0 1.9 -0.5 1.7 -1.2z"/>
  <path d="M801 96.1 l0 -6 3.3 0.1 c6.2 0 6.7 0.4 6.7 6.4 0 4 -0.4 5.4 -1.4 5.4 -1.1 0 -1.6 -1.4 -1.8 -4.7 -0.2 -3.5 -0.7 -4.8 -1.8 -4.8 -1.1 0 -1.6 1.3 -1.8 4.8 -0.2 3.3 -0.7 4.7 -1.8 4.7 -1.1 0 -1.4 -1.4 -1.4 -5.9z"/>
  <path d="M815.7 101.3 c-1.3 -1.2 -0.7 -2.3 1.3 -2.3 2.8 0 2.5 -1.4 -0.5 -2.8 -2.7 -1.3 -3.2 -3.1 -1.3 -5 1.5 -1.5 5.4 -1.6 6.3 -0.2 0.3 0.6 -0.3 1 -1.4 1 -2.9 0 -2.6 1.4 0.4 2.8 2.7 1.2 3.3 4 1.3 6 -1.3 1.3 -5 1.6 -6.1 0.5z"/>
  <path d="M826.4 100.6 c-0.9 -2.4 0.1 -9.9 1.4 -10.4 0.9 -0.3 1.2 1.3 1.2 5.7 0 5.7 -1.3 8.1 -2.6 4.7z"/>
  <path d="M834.2 100.8 c-1.7 -2.2 -1.9 -13.8 -0.2 -13.8 1.7 0 5.5 4.3 4.2 4.8 -1.6 0.5 -1.6 6.9 0 7.4 1.5 0.5 0.1 2.8 -1.6 2.8 -0.8 0 -1.8 -0.6 -2.4 -1.2z"/>
  <path d="M826.5 87 c-0.7 -1.2 0.2 -3 1.6 -3 1.2 0 1.2 2.7 0 3.5 -0.5 0.3 -1.2 0.1 -1.6 -0.5z"/>
  <path d="M48.2 85.8 c-0.7 -0.7 -1.2 -3.1 -1.2 -5.5 0 -3.6 0.4 -4.5 2.5 -5.5 3.5 -1.6 5.5 0.4 5.5 5.6 0 4.4 -1.3 6.6 -4 6.6 -0.9 0 -2.1 -0.5 -2.8 -1.2z m4.3 -5.4 c0 -2.8 -0.4 -3.9 -1.5 -3.9 -1.6 0 -2.6 4.5 -1.6 7.2 1.1 2.8 3.1 0.7 3.1 -3.3z"/>
  <path d="M57.6 84.8 c-2.2 -3.1 -2 -6.4 0.4 -8.8 3.9 -3.9 7 -1.8 7 4.5 0 6.4 -4.2 8.8 -7.4 4.3z m4.9 -4.4 c0 -2.8 -0.4 -3.9 -1.5 -3.9 -1.6 0 -2.6 4.5 -1.6 7.2 1.1 2.8 3.1 0.7 3.1 -3.3z"/>
  <path d="M867 67 l0 -11 -59 0 c-51.8 0 -59 -0.2 -59 -1.5 0 -1.3 7.4 -1.5 60.5 -1.5 l60.5 0 0 12.5 c0 10.4 -0.2 12.5 -1.5 12.5 -1.2 0 -1.5 -1.9 -1.5 -11z"/>
  <path d="M410 54.5 c0 -1.3 6.9 -1.5 56 -1.5 49.1 0 56 0.2 56 1.5 0 1.3 -6.9 1.5 -56 1.5 -49.1 0 -56 -0.2 -56 -1.5z"/>
  <path d="M523 54.5 c0 -1.3 7 -1.5 57 -1.5 50 0 57 0.2 57 1.5 0 1.3 -7 1.5 -57 1.5 -50 0 -57 -0.2 -57 -1.5z"/>
  <path d="M638 54.5 c0 -1.3 6.8 -1.5 55 -1.5 48.2 0 55 0.2 55 1.5 0 1.3 -6.8 1.5 -55 1.5 -48.2 0 -55 -0.2 -55 -1.5z"/>
 </g>
 <g fill="#be7e58">
  <path d="M644.5 417 c0 -22.8 0.1 -32.2 0.2 -20.8 0.2 11.5 0.2 30.1 0 41.5 -0.1 11.5 -0.2 2.1 -0.2 -20.7z"/>
  <path d="M467 411.9 c0 -38.7 0.2 -45.3 1.5 -46.5 1.3 -1.4 1.5 3.3 1.5 41.9 0 23.9 -0.3 44.9 -0.6 46.6 -1.8 9 -2.4 -1 -2.4 -42z"/>
  <path d="M749.5 420.5 c0 -20.3 0.1 -28.5 0.2 -18.2 0.2 10.4 0.2 27 0 37 -0.1 10 -0.2 1.6 -0.2 -18.8z"/>
  <path d="M268.4 441.5 c0 -8.2 0.2 -11.5 0.3 -7.2 0.2 4.3 0.2 11 0 15 -0.1 4 -0.3 0.5 -0.3 -7.8z"/>
  <path d="M636.5 265.5 c0 -105.1 0.1 -148.2 0.2 -95.8 0.2 52.3 0.2 138.3 0 191 -0.1 52.7 -0.2 9.9 -0.2 -95.2z"/>
  <path d="M743 334.3 c0 -80.9 0.3 -122.3 1 -122.3 1.4 0 1.4 240.9 0 243 -0.6 1 -1 -41.5 -1 -120.7z"/>
  <path d="M265.4 440.5 c0 -8.2 0.2 -11.5 0.3 -7.2 0.2 4.3 0.2 11 0 15 -0.1 4 -0.3 0.5 -0.3 -7.8z"/>
  <path d="M291.7 454.3 c-1.2 -1.1 -0.8 -164.1 0.3 -164.8 0.7 -0.4 1 27.3 1 82.4 0 45.7 -0.1 83.1 -0.3 83.1 -0.2 0 -0.7 -0.3 -1 -0.7z"/>
  <path d="M361.4 438.5 c0 -9.3 0.2 -13.3 0.3 -8.8 0.2 4.5 0.2 12.2 0 17 -0.1 4.8 -0.3 1.2 -0.3 -8.2z"/>
  <path d="M364.4 439 c0 -8.5 0.2 -12 0.3 -7.7 0.2 4.2 0.2 11.2 0 15.5 -0.1 4.2 -0.3 0.7 -0.3 -7.8z"/>
  <path d="M638.5 265.5 c0 -103.9 0.1 -146.3 0.2 -94.2 0.2 52.2 0.2 137.2 0 189 -0.1 51.8 -0.2 9.2 -0.2 -94.8z"/>
  <path d="M642.5 415 c0 -21.7 0.1 -30.6 0.2 -19.7 0.2 10.8 0.2 28.6 0 39.5 -0.1 10.8 -0.2 1.9 -0.2 -19.8z"/>
  <path d="M721 94 l0 -9 12.5 0 12.5 0 0 9 0 9 -12.5 0 -12.5 0 0 -9z"/>
 </g>
 <g fill="#903a00">
  <path d="M90.3 494 c0 -2.5 0.2 -3.5 0.4 -2.2 0.2 1.2 0.2 3.2 0 4.5 -0.2 1.2 -0.4 0.2 -0.4 -2.3z"/>
  <path d="M127.3 494 c0 -2.5 0.2 -3.5 0.4 -2.2 0.2 1.2 0.2 3.2 0 4.5 -0.2 1.2 -0.4 0.2 -0.4 -2.3z"/>
  <path d="M631.3 464.5 c0 -2.7 0.2 -3.8 0.4 -2.2 0.2 1.5 0.2 3.7 0 5 -0.2 1.2 -0.4 0 -0.4 -2.8z"/>
  <path d="M735.3 464.5 c0 -2.7 0.2 -3.8 0.4 -2.2 0.2 1.5 0.2 3.7 0 5 -0.2 1.2 -0.4 0 -0.4 -2.8z"/>
  <path d="M771.3 97.5 c0 -2.7 0.2 -3.8 0.4 -2.2 0.2 1.5 0.2 3.7 0 5 -0.2 1.2 -0.4 0 -0.4 -2.8z"/>
  <path d="M808.3 97.5 c0 -2.7 0.2 -3.8 0.4 -2.2 0.2 1.5 0.2 3.7 0 5 -0.2 1.2 -0.4 0 -0.4 -2.8z"/>
  <path d="M778.3 96 c0 -2.5 0.2 -3.5 0.4 -2.2 0.2 1.2 0.2 3.2 0 4.5 -0.2 1.2 -0.4 0.2 -0.4 -2.3z"/>
  <path d="M786.4 98.6 c-0.3 -0.8 -0.4 -2.5 -0.2 -3.8 0.3 -1.7 0.5 -1.3 0.9 1.5 0.5 3.8 0.2 4.7 -0.7 2.3z"/>
  <path d="M833.3 96 c0 -2.5 0.2 -3.5 0.4 -2.2 0.2 1.2 0.2 3.2 0 4.5 -0.2 1.2 -0.4 0.2 -0.4 -2.3z"/>
  <path d="M40.3 80.5 c0 -2.7 0.2 -3.8 0.4 -2.2 0.2 1.5 0.2 3.7 0 5 -0.2 1.2 -0.4 0 -0.4 -2.8z"/>
 </g>
</svg>